<?xml version="1.0" standalone="no"?>
<!DOCTYPE svg PUBLIC "-//W3C//DTD SVG 20010904//EN"
 "http://www.w3.org/TR/2001/REC-SVG-20010904/DTD/svg10.dtd">
<svg version="1.0" xmlns="http://www.w3.org/2000/svg"
 width="64.000000pt" height="64.000000pt" viewBox="0 0 64.000000 64.000000"
 preserveAspectRatio="xMidYMid meet">

<g transform="translate(0.000000,64.000000) scale(0.100000,-0.100000)"
fill="#000000" stroke="none">
<path d="M70 320 l0 -110 63 0 62 0 27 45 c25 41 26 45 10 54 -14 8 -15 12 -4
22 6 7 12 25 12 40 0 41 -33 59 -107 59 l-63 0 0 -110z m134 57 c15 -24 -15
-47 -61 -47 -31 0 -33 2 -33 36 0 35 0 35 41 32 27 -2 46 -9 53 -21z m0 -83
c9 -8 16 -19 16 -24 0 -21 -34 -40 -71 -40 -39 0 -39 0 -39 40 0 40 0 40 39
40 23 0 46 -7 55 -16z"/>
<path d="M296 325 c-36 -57 -66 -107 -66 -110 0 -3 8 -5 18 -5 11 0 40 36 82
102 78 122 76 118 52 118 -15 0 -38 -29 -86 -105z"/>
<path d="M411 396 c-27 -43 -31 -186 -6 -186 12 0 15 17 15 95 l0 95 60 0 60
0 0 -95 c0 -78 3 -95 15 -95 12 0 15 19 15 110 l0 110 -69 0 c-68 0 -70 -1
-90 -34z"/>
</g>
</svg>
